<svg width="393" height="853" viewBox="0 0 393 853" fill="none" xmlns="http://www.w3.org/2000/svg">
<g clip-path="url(#clip0_12_1023)">
<g filter="url(#filter0_f_12_1023)">
<rect width="3" height="94.3954" rx="0.302308" transform="matrix(-1 0 0 1 392.697 241.543)" fill="#DEDEDE"/>
<rect x="0.151154" y="-0.151154" width="3.30231" height="94.6977" rx="0.453462" transform="matrix(-1 0 0 1 393 241.543)" stroke="black" stroke-width="0.302308"/>
</g>
<g filter="url(#filter1_f_12_1023)">
<rect x="0.151154" y="-0.151154" width="2.69769" height="94.0931" rx="0.211615" transform="matrix(-1 0 0 1 392.698 241.848)" stroke="#FAFAF8" stroke-width="0.302308"/>
</g>
<g filter="url(#filter2_f_12_1023)">
<rect width="2.72077" height="6.65077" rx="0.151154" transform="matrix(-1 0 0 1 392.396 241.848)" fill="url(#paint0_linear_12_1023)"/>
</g>
<g filter="url(#filter3_f_12_1023)">
<rect x="392.396" y="335.637" width="2.72077" height="6.65077" rx="0.151154" transform="rotate(180 392.396 335.637)" fill="url(#paint1_linear_12_1023)"/>
</g>
</g>
<g clip-path="url(#clip1_12_1023)">
<g filter="url(#filter4_f_12_1023)">
<rect x="0.302734" y="162.941" width="3" height="28.3954" rx="0.302308" fill="#DEDEDE"/>
<rect x="0.151581" y="162.79" width="3.30231" height="28.6977" rx="0.453462" stroke="black" stroke-width="0.302308"/>
</g>
<g filter="url(#filter5_f_12_1023)">
<rect x="0.453338" y="163.095" width="2.69769" height="28.0931" rx="0.211615" stroke="#FAFAF8" stroke-width="0.302308"/>
</g>
<g filter="url(#filter6_f_12_1023)">
<rect x="0.604492" y="163.246" width="2.72077" height="3.32538" rx="0.151154" fill="url(#paint2_linear_12_1023)"/>
</g>
<g filter="url(#filter7_f_12_1023)">
<rect width="2.72077" height="3.32538" rx="0.151154" transform="matrix(1 0 0 -1 0.604492 191.035)" fill="url(#paint3_linear_12_1023)"/>
</g>
</g>
<g clip-path="url(#clip2_12_1023)">
<g filter="url(#filter8_f_12_1023)">
<rect x="0.302734" y="220.078" width="3" height="60.3954" rx="0.302308" fill="#DEDEDE"/>
<rect x="0.151581" y="219.927" width="3.30231" height="60.6977" rx="0.453462" stroke="black" stroke-width="0.302308"/>
</g>
<g filter="url(#filter9_f_12_1023)">
<rect x="0.453338" y="220.232" width="2.69769" height="60.0931" rx="0.211615" stroke="#FAFAF8" stroke-width="0.302308"/>
</g>
<g filter="url(#filter10_f_12_1023)">
<rect x="0.604492" y="220.383" width="2.72077" height="6.65077" rx="0.151154" fill="url(#paint4_linear_12_1023)"/>
</g>
<g filter="url(#filter11_f_12_1023)">
<rect width="2.72077" height="6.65077" rx="0.151154" transform="matrix(1 0 0 -1 0.604492 280.172)" fill="url(#paint5_linear_12_1023)"/>
</g>
</g>
<g clip-path="url(#clip3_12_1023)">
<g filter="url(#filter12_f_12_1023)">
<rect x="0.302734" y="296.867" width="3" height="60.3954" rx="0.302308" fill="#DEDEDE"/>
<rect x="0.151581" y="296.716" width="3.30231" height="60.6977" rx="0.453462" stroke="black" stroke-width="0.302308"/>
</g>
<g filter="url(#filter13_f_12_1023)">
<rect x="0.453338" y="297.021" width="2.69769" height="60.0931" rx="0.211615" stroke="#FAFAF8" stroke-width="0.302308"/>
</g>
<g filter="url(#filter14_f_12_1023)">
<rect x="0.604492" y="297.172" width="2.72077" height="6.65077" rx="0.151154" fill="url(#paint6_linear_12_1023)"/>
</g>
<g filter="url(#filter15_f_12_1023)">
<rect width="2.72077" height="6.65077" rx="0.151154" transform="matrix(1 0 0 -1 0.604492 356.961)" fill="url(#paint7_linear_12_1023)"/>
</g>
</g>
<g clip-path="url(#clip4_12_1023)">
<rect x="7.4523" y="3.57047" width="379.001" height="844.744" rx="60.0081" stroke="#3C404A" stroke-width="3.93"/>
<rect x="4.73233" y="0.849519" width="384.442" height="850.185" rx="62.7288" stroke="#282D36" stroke-width="1.51154"/>
<g opacity="0.9" filter="url(#filter16_f_12_1023)">
<rect x="5.4873" y="1.91016" width="382.931" height="848.372" rx="62.2754" stroke="#696D75" stroke-width="1.51154"/>
</g>
<g opacity="0.8" filter="url(#filter17_f_12_1023)">
<rect x="10.6274" y="6.74457" width="372.652" height="838.395" rx="56.8338" stroke="#5B5959" stroke-width="0.604615"/>
</g>
<rect x="140.5" y="25.0469" width="111.854" height="32.6492" rx="16.3246" fill="black"/>
<g opacity="0.75">
<rect x="222.425" y="33.814" width="15.1154" height="15.1154" rx="7.55769" fill="#121212"/>
<rect x="222.425" y="33.814" width="15.1154" height="15.1154" rx="7.55769" stroke="#0E0E0E" stroke-width="0.604615"/>
<g filter="url(#filter18_f_12_1023)">
<path d="M228.298 38.0039C225.745 38.7525 224.894 43.0568 228.298 44.741C227.447 42.4953 227.447 40.4368 228.298 38.0039Z" fill="#50A99A"/>
</g>
<g filter="url(#filter19_f_12_1023)">
<path d="M227.737 39.5586C226.46 39.9617 226.035 42.2794 227.737 43.1863C227.312 41.9771 227.312 40.8686 227.737 39.5586Z" fill="#50A99A"/>
</g>
<g opacity="0.4" filter="url(#filter20_f_12_1023)">
<path d="M228.263 38.9717C227.168 39.1367 226.369 42.1644 227.69 42.9683C227.223 41.8887 227.457 39.7293 228.263 38.9717Z" fill="#D0FFF7"/>
</g>
<g filter="url(#filter21_f_12_1023)">
<path d="M231.667 38.0039C234.221 38.7525 235.072 43.0568 231.667 44.741C232.519 42.4953 232.519 40.4368 231.667 38.0039Z" fill="#3E518C"/>
</g>
<g filter="url(#filter22_f_12_1023)">
<path d="M232.229 39.5586C233.506 39.9617 233.931 42.2794 232.229 43.1863C232.654 41.9771 232.654 40.8686 232.229 39.5586Z" fill="#26408D"/>
</g>
<g opacity="0.5" filter="url(#filter23_f_12_1023)">
<path d="M231.703 38.9717C232.797 39.1367 233.597 42.1644 232.275 42.9683C232.743 41.8887 232.509 39.7293 231.703 38.9717Z" fill="#0D308C"/>
</g>
</g>
<g opacity="0.4">
<rect width="21.7662" height="21.7662" rx="10.8831" transform="matrix(-1 0 0 1 167.708 30.4883)" fill="#141414"/>
<rect width="14.148" height="14.148" rx="7.074" transform="matrix(-1 0 0 1 163.898 34.2969)" fill="black"/>
<g filter="url(#filter24_f_12_1023)">
<path d="M158.948 37.1289C162.165 38.0721 163.238 43.4955 158.948 45.6177C160.02 42.7881 160.02 40.1943 158.948 37.1289Z" fill="#50A99A"/>
</g>
<g filter="url(#filter25_f_12_1023)">
<path d="M159.655 39.0859C161.263 39.5938 161.8 42.5141 159.655 43.6568C160.191 42.1332 160.191 40.7365 159.655 39.0859Z" fill="#50A99A"/>
</g>
<g opacity="0.5" filter="url(#filter26_f_12_1023)">
<path d="M158.993 38.3476C160.372 38.5554 161.379 42.3704 159.714 43.3833C160.303 42.0229 160.008 39.3022 158.993 38.3476Z" fill="#D0FFF7"/>
</g>
<g filter="url(#filter27_f_12_1023)">
<path d="M154.702 37.1289C151.484 38.0721 150.412 43.4955 154.702 45.6177C153.629 42.7881 153.629 40.1943 154.702 37.1289Z" fill="#3E518C"/>
</g>
<g filter="url(#filter28_f_12_1023)">
<path d="M153.995 39.0859C152.386 39.5938 151.85 42.5141 153.995 43.6568C153.459 42.1332 153.459 40.7365 153.995 39.0859Z" fill="#26408D"/>
</g>
<g opacity="0.5" filter="url(#filter29_f_12_1023)">
<path d="M154.657 38.3476C153.278 38.5554 152.27 42.3704 153.936 43.3833C153.346 42.0229 153.641 39.3022 154.657 38.3476Z" fill="#0D308C"/>
</g>
</g>
<g opacity="0.4">
<g style="mix-blend-mode:screen" opacity="0.75">
<rect x="3.5" y="712.891" width="5.44154" height="4.83692" fill="#7C7C7C"/>
</g>
<g style="mix-blend-mode:screen" opacity="0.75">
<rect x="83.0068" y="792.699" width="4.83692" height="5.44154" fill="#7C7C7C"/>
</g>
<g style="mix-blend-mode:screen" opacity="0.75">
<rect x="385.012" y="80.7656" width="5.44154" height="4.83692" fill="#7C7C7C"/>
</g>
<g style="mix-blend-mode:screen" opacity="0.75">
<rect x="3.5" y="80.7656" width="5.44154" height="4.83692" fill="#7C7C7C"/>
</g>
<g style="mix-blend-mode:screen" opacity="0.75">
<rect x="311.551" y="0.046875" width="4.83692" height="5.44154" fill="#7C7C7C"/>
</g>
<g style="mix-blend-mode:screen" opacity="0.75">
<rect x="385.012" y="712.586" width="5.44154" height="4.83692" fill="#7C7C7C"/>
</g>
</g>
</g>
<defs>
<filter id="filter0_f_12_1023" x="389.092" y="240.94" width="4.21008" height="95.6046" filterUnits="userSpaceOnUse" color-interpolation-filters="sRGB">
<feFlood flood-opacity="0" result="BackgroundImageFix"/>
<feBlend mode="normal" in="SourceGraphic" in2="BackgroundImageFix" result="shape"/>
<feGaussianBlur stdDeviation="0.151154" result="effect1_foregroundBlur_12_1023"/>
</filter>
<filter id="filter1_f_12_1023" x="389.396" y="241.245" width="3.60462" height="94.9991" filterUnits="userSpaceOnUse" color-interpolation-filters="sRGB">
<feFlood flood-opacity="0" result="BackgroundImageFix"/>
<feBlend mode="normal" in="SourceGraphic" in2="BackgroundImageFix" result="shape"/>
<feGaussianBlur stdDeviation="0.151154" result="effect1_foregroundBlur_12_1023"/>
</filter>
<filter id="filter2_f_12_1023" x="389.372" y="241.545" width="3.32532" height="7.25696" filterUnits="userSpaceOnUse" color-interpolation-filters="sRGB">
<feFlood flood-opacity="0" result="BackgroundImageFix"/>
<feBlend mode="normal" in="SourceGraphic" in2="BackgroundImageFix" result="shape"/>
<feGaussianBlur stdDeviation="0.151154" result="effect1_foregroundBlur_12_1023"/>
</filter>
<filter id="filter3_f_12_1023" x="389.372" y="328.682" width="3.32532" height="7.25696" filterUnits="userSpaceOnUse" color-interpolation-filters="sRGB">
<feFlood flood-opacity="0" result="BackgroundImageFix"/>
<feBlend mode="normal" in="SourceGraphic" in2="BackgroundImageFix" result="shape"/>
<feGaussianBlur stdDeviation="0.151154" result="effect1_foregroundBlur_12_1023"/>
</filter>
<filter id="filter4_f_12_1023" x="-0.302308" y="162.338" width="4.21008" height="29.6046" filterUnits="userSpaceOnUse" color-interpolation-filters="sRGB">
<feFlood flood-opacity="0" result="BackgroundImageFix"/>
<feBlend mode="normal" in="SourceGraphic" in2="BackgroundImageFix" result="shape"/>
<feGaussianBlur stdDeviation="0.151154" result="effect1_foregroundBlur_12_1023"/>
</filter>
<filter id="filter5_f_12_1023" x="-0.000549883" y="162.643" width="3.60462" height="28.9991" filterUnits="userSpaceOnUse" color-interpolation-filters="sRGB">
<feFlood flood-opacity="0" result="BackgroundImageFix"/>
<feBlend mode="normal" in="SourceGraphic" in2="BackgroundImageFix" result="shape"/>
<feGaussianBlur stdDeviation="0.151154" result="effect1_foregroundBlur_12_1023"/>
</filter>
<filter id="filter6_f_12_1023" x="0.302184" y="162.944" width="3.32532" height="3.92883" filterUnits="userSpaceOnUse" color-interpolation-filters="sRGB">
<feFlood flood-opacity="0" result="BackgroundImageFix"/>
<feBlend mode="normal" in="SourceGraphic" in2="BackgroundImageFix" result="shape"/>
<feGaussianBlur stdDeviation="0.151154" result="effect1_foregroundBlur_12_1023"/>
</filter>
<filter id="filter7_f_12_1023" x="0.302184" y="187.409" width="3.32532" height="3.92883" filterUnits="userSpaceOnUse" color-interpolation-filters="sRGB">
<feFlood flood-opacity="0" result="BackgroundImageFix"/>
<feBlend mode="normal" in="SourceGraphic" in2="BackgroundImageFix" result="shape"/>
<feGaussianBlur stdDeviation="0.151154" result="effect1_foregroundBlur_12_1023"/>
</filter>
<filter id="filter8_f_12_1023" x="-0.302308" y="219.475" width="4.21008" height="61.6046" filterUnits="userSpaceOnUse" color-interpolation-filters="sRGB">
<feFlood flood-opacity="0" result="BackgroundImageFix"/>
<feBlend mode="normal" in="SourceGraphic" in2="BackgroundImageFix" result="shape"/>
<feGaussianBlur stdDeviation="0.151154" result="effect1_foregroundBlur_12_1023"/>
</filter>
<filter id="filter9_f_12_1023" x="-0.000549883" y="219.78" width="3.60462" height="60.9991" filterUnits="userSpaceOnUse" color-interpolation-filters="sRGB">
<feFlood flood-opacity="0" result="BackgroundImageFix"/>
<feBlend mode="normal" in="SourceGraphic" in2="BackgroundImageFix" result="shape"/>
<feGaussianBlur stdDeviation="0.151154" result="effect1_foregroundBlur_12_1023"/>
</filter>
<filter id="filter10_f_12_1023" x="0.302184" y="220.081" width="3.32532" height="7.25696" filterUnits="userSpaceOnUse" color-interpolation-filters="sRGB">
<feFlood flood-opacity="0" result="BackgroundImageFix"/>
<feBlend mode="normal" in="SourceGraphic" in2="BackgroundImageFix" result="shape"/>
<feGaussianBlur stdDeviation="0.151154" result="effect1_foregroundBlur_12_1023"/>
</filter>
<filter id="filter11_f_12_1023" x="0.302184" y="273.217" width="3.32532" height="7.25696" filterUnits="userSpaceOnUse" color-interpolation-filters="sRGB">
<feFlood flood-opacity="0" result="BackgroundImageFix"/>
<feBlend mode="normal" in="SourceGraphic" in2="BackgroundImageFix" result="shape"/>
<feGaussianBlur stdDeviation="0.151154" result="effect1_foregroundBlur_12_1023"/>
</filter>
<filter id="filter12_f_12_1023" x="-0.302308" y="296.264" width="4.21008" height="61.6046" filterUnits="userSpaceOnUse" color-interpolation-filters="sRGB">
<feFlood flood-opacity="0" result="BackgroundImageFix"/>
<feBlend mode="normal" in="SourceGraphic" in2="BackgroundImageFix" result="shape"/>
<feGaussianBlur stdDeviation="0.151154" result="effect1_foregroundBlur_12_1023"/>
</filter>
<filter id="filter13_f_12_1023" x="-0.000549883" y="296.569" width="3.60462" height="60.9991" filterUnits="userSpaceOnUse" color-interpolation-filters="sRGB">
<feFlood flood-opacity="0" result="BackgroundImageFix"/>
<feBlend mode="normal" in="SourceGraphic" in2="BackgroundImageFix" result="shape"/>
<feGaussianBlur stdDeviation="0.151154" result="effect1_foregroundBlur_12_1023"/>
</filter>
<filter id="filter14_f_12_1023" x="0.302184" y="296.87" width="3.32532" height="7.25696" filterUnits="userSpaceOnUse" color-interpolation-filters="sRGB">
<feFlood flood-opacity="0" result="BackgroundImageFix"/>
<feBlend mode="normal" in="SourceGraphic" in2="BackgroundImageFix" result="shape"/>
<feGaussianBlur stdDeviation="0.151154" result="effect1_foregroundBlur_12_1023"/>
</filter>
<filter id="filter15_f_12_1023" x="0.302184" y="350.006" width="3.32532" height="7.25696" filterUnits="userSpaceOnUse" color-interpolation-filters="sRGB">
<feFlood flood-opacity="0" result="BackgroundImageFix"/>
<feBlend mode="normal" in="SourceGraphic" in2="BackgroundImageFix" result="shape"/>
<feGaussianBlur stdDeviation="0.151154" result="effect1_foregroundBlur_12_1023"/>
</filter>
<filter id="filter16_f_12_1023" x="3.82452" y="0.249327" width="386.256" height="851.697" filterUnits="userSpaceOnUse" color-interpolation-filters="sRGB">
<feFlood flood-opacity="0" result="BackgroundImageFix"/>
<feBlend mode="normal" in="SourceGraphic" in2="BackgroundImageFix" result="shape"/>
<feGaussianBlur stdDeviation="0.453462" result="effect1_foregroundBlur_12_1023"/>
</filter>
<filter id="filter17_f_12_1023" x="9.72058" y="5.83679" width="374.466" height="840.209" filterUnits="userSpaceOnUse" color-interpolation-filters="sRGB">
<feFlood flood-opacity="0" result="BackgroundImageFix"/>
<feBlend mode="normal" in="SourceGraphic" in2="BackgroundImageFix" result="shape"/>
<feGaussianBlur stdDeviation="0.302308" result="effect1_foregroundBlur_12_1023"/>
</filter>
<filter id="filter18_f_12_1023" x="224.368" y="36.3196" width="5.61467" height="10.1069" filterUnits="userSpaceOnUse" color-interpolation-filters="sRGB">
<feFlood flood-opacity="0" result="BackgroundImageFix"/>
<feBlend mode="normal" in="SourceGraphic" in2="BackgroundImageFix" result="shape"/>
<feGaussianBlur stdDeviation="0.842143" result="effect1_foregroundBlur_12_1023"/>
</filter>
<filter id="filter19_f_12_1023" x="224.93" y="37.8743" width="4.49162" height="6.99748" filterUnits="userSpaceOnUse" color-interpolation-filters="sRGB">
<feFlood flood-opacity="0" result="BackgroundImageFix"/>
<feBlend mode="normal" in="SourceGraphic" in2="BackgroundImageFix" result="shape"/>
<feGaussianBlur stdDeviation="0.842143" result="effect1_foregroundBlur_12_1023"/>
</filter>
<filter id="filter20_f_12_1023" x="225.879" y="37.8498" width="3.50646" height="6.24181" filterUnits="userSpaceOnUse" color-interpolation-filters="sRGB">
<feFlood flood-opacity="0" result="BackgroundImageFix"/>
<feBlend mode="normal" in="SourceGraphic" in2="BackgroundImageFix" result="shape"/>
<feGaussianBlur stdDeviation="0.561429" result="effect1_foregroundBlur_12_1023"/>
</filter>
<filter id="filter21_f_12_1023" x="229.983" y="36.3196" width="5.61467" height="10.1069" filterUnits="userSpaceOnUse" color-interpolation-filters="sRGB">
<feFlood flood-opacity="0" result="BackgroundImageFix"/>
<feBlend mode="normal" in="SourceGraphic" in2="BackgroundImageFix" result="shape"/>
<feGaussianBlur stdDeviation="0.842143" result="effect1_foregroundBlur_12_1023"/>
</filter>
<filter id="filter22_f_12_1023" x="230.544" y="37.8743" width="4.49162" height="6.99748" filterUnits="userSpaceOnUse" color-interpolation-filters="sRGB">
<feFlood flood-opacity="0" result="BackgroundImageFix"/>
<feBlend mode="normal" in="SourceGraphic" in2="BackgroundImageFix" result="shape"/>
<feGaussianBlur stdDeviation="0.842143" result="effect1_foregroundBlur_12_1023"/>
</filter>
<filter id="filter23_f_12_1023" x="230.58" y="37.8498" width="3.50646" height="6.24181" filterUnits="userSpaceOnUse" color-interpolation-filters="sRGB">
<feFlood flood-opacity="0" result="BackgroundImageFix"/>
<feBlend mode="normal" in="SourceGraphic" in2="BackgroundImageFix" result="shape"/>
<feGaussianBlur stdDeviation="0.561429" result="effect1_foregroundBlur_12_1023"/>
</filter>
<filter id="filter24_f_12_1023" x="156.825" y="35.0067" width="7.07448" height="12.7327" filterUnits="userSpaceOnUse" color-interpolation-filters="sRGB">
<feFlood flood-opacity="0" result="BackgroundImageFix"/>
<feBlend mode="normal" in="SourceGraphic" in2="BackgroundImageFix" result="shape"/>
<feGaussianBlur stdDeviation="1.0611" result="effect1_foregroundBlur_12_1023"/>
</filter>
<filter id="filter25_f_12_1023" x="157.532" y="36.9637" width="5.65944" height="8.81471" filterUnits="userSpaceOnUse" color-interpolation-filters="sRGB">
<feFlood flood-opacity="0" result="BackgroundImageFix"/>
<feBlend mode="normal" in="SourceGraphic" in2="BackgroundImageFix" result="shape"/>
<feGaussianBlur stdDeviation="1.0611" result="effect1_foregroundBlur_12_1023"/>
</filter>
<filter id="filter26_f_12_1023" x="158.286" y="37.6403" width="3.00269" height="6.44996" filterUnits="userSpaceOnUse" color-interpolation-filters="sRGB">
<feFlood flood-opacity="0" result="BackgroundImageFix"/>
<feBlend mode="normal" in="SourceGraphic" in2="BackgroundImageFix" result="shape"/>
<feGaussianBlur stdDeviation="0.3537" result="effect1_foregroundBlur_12_1023"/>
</filter>
<filter id="filter27_f_12_1023" x="149.75" y="35.0067" width="7.07448" height="12.7327" filterUnits="userSpaceOnUse" color-interpolation-filters="sRGB">
<feFlood flood-opacity="0" result="BackgroundImageFix"/>
<feBlend mode="normal" in="SourceGraphic" in2="BackgroundImageFix" result="shape"/>
<feGaussianBlur stdDeviation="1.0611" result="effect1_foregroundBlur_12_1023"/>
</filter>
<filter id="filter28_f_12_1023" x="150.458" y="36.9637" width="5.65944" height="8.81471" filterUnits="userSpaceOnUse" color-interpolation-filters="sRGB">
<feFlood flood-opacity="0" result="BackgroundImageFix"/>
<feBlend mode="normal" in="SourceGraphic" in2="BackgroundImageFix" result="shape"/>
<feGaussianBlur stdDeviation="1.0611" result="effect1_foregroundBlur_12_1023"/>
</filter>
<filter id="filter29_f_12_1023" x="152.361" y="37.6403" width="3.00269" height="6.44996" filterUnits="userSpaceOnUse" color-interpolation-filters="sRGB">
<feFlood flood-opacity="0" result="BackgroundImageFix"/>
<feBlend mode="normal" in="SourceGraphic" in2="BackgroundImageFix" result="shape"/>
<feGaussianBlur stdDeviation="0.3537" result="effect1_foregroundBlur_12_1023"/>
</filter>
<linearGradient id="paint0_linear_12_1023" x1="1.36038" y1="0" x2="1.36038" y2="6.65077" gradientUnits="userSpaceOnUse">
<stop stop-color="#2D2E2A"/>
<stop offset="0.760033" stop-color="#DEDEDE"/>
</linearGradient>
<linearGradient id="paint1_linear_12_1023" x1="393.756" y1="335.637" x2="393.756" y2="342.287" gradientUnits="userSpaceOnUse">
<stop stop-color="#2D2E2A"/>
<stop offset="0.760033" stop-color="#DEDEDE"/>
</linearGradient>
<linearGradient id="paint2_linear_12_1023" x1="1.96488" y1="163.246" x2="1.96488" y2="166.571" gradientUnits="userSpaceOnUse">
<stop stop-color="#2D2E2A"/>
<stop offset="0.760033" stop-color="#DEDEDE"/>
</linearGradient>
<linearGradient id="paint3_linear_12_1023" x1="1.36038" y1="0" x2="1.36038" y2="3.32538" gradientUnits="userSpaceOnUse">
<stop stop-color="#2D2E2A"/>
<stop offset="0.760033" stop-color="#DEDEDE"/>
</linearGradient>
<linearGradient id="paint4_linear_12_1023" x1="1.96488" y1="220.383" x2="1.96488" y2="227.034" gradientUnits="userSpaceOnUse">
<stop stop-color="#2D2E2A"/>
<stop offset="0.760033" stop-color="#DEDEDE"/>
</linearGradient>
<linearGradient id="paint5_linear_12_1023" x1="1.36038" y1="0" x2="1.36038" y2="6.65077" gradientUnits="userSpaceOnUse">
<stop stop-color="#2D2E2A"/>
<stop offset="0.760033" stop-color="#DEDEDE"/>
</linearGradient>
<linearGradient id="paint6_linear_12_1023" x1="1.96488" y1="297.172" x2="1.96488" y2="303.823" gradientUnits="userSpaceOnUse">
<stop stop-color="#2D2E2A"/>
<stop offset="0.760033" stop-color="#DEDEDE"/>
</linearGradient>
<linearGradient id="paint7_linear_12_1023" x1="1.36038" y1="0" x2="1.36038" y2="6.65077" gradientUnits="userSpaceOnUse">
<stop stop-color="#2D2E2A"/>
<stop offset="0.760033" stop-color="#DEDEDE"/>
</linearGradient>
<clipPath id="clip0_12_1023">
<path d="M393 241.847C393 241.513 392.729 241.242 392.395 241.242H389.977V336.167H392.395C392.729 336.167 393 335.896 393 335.562V241.847Z" fill="white"/>
</clipPath>
<clipPath id="clip1_12_1023">
<path d="M0 163.245C0 162.911 0.270696 162.641 0.604615 162.641H3.02308V191.964H0.604615C0.270695 191.964 0 191.694 0 191.36V163.245Z" fill="white"/>
</clipPath>
<clipPath id="clip2_12_1023">
<path d="M0 220.382C0 220.048 0.270696 219.777 0.604615 219.777H3.02308V280.843H0.604615C0.270695 280.843 0 280.573 0 280.239V220.382Z" fill="white"/>
</clipPath>
<clipPath id="clip3_12_1023">
<path d="M0 297.171C0 296.837 0.270696 296.566 0.604615 296.566H3.02308V357.633H0.604615C0.270695 357.633 0 357.362 0 357.028V297.171Z" fill="white"/>
</clipPath>
<clipPath id="clip4_12_1023">
<rect x="3.5" y="0.046875" width="386" height="852" rx="63.4846" fill="white"/>
</clipPath>
</defs>
</svg>
