<svg width="403" height="875" viewBox="0 0 403 875" fill="none" xmlns="http://www.w3.org/2000/svg">
<g clip-path="url(#clip0_3_1598)">
<rect x="3.92088" y="4.00779" width="394.684" height="866.867" rx="62.0307" stroke="#515868" stroke-width="4.06246"/>
<rect x="1.10839" y="1.19531" width="400.309" height="872.492" rx="64.8431" stroke="#303640" stroke-width="1.56249"/>
<g opacity="0.9" filter="url(#filter0_f_3_1598)">
<rect x="1.88965" y="2.28906" width="398.746" height="870.617" rx="64.3744" stroke="#717989" stroke-width="1.56249"/>
</g>
<g opacity="0.8" filter="url(#filter1_f_3_1598)">
<rect x="7.20215" y="7.28907" width="388.121" height="860.304" rx="58.7494" stroke="#646464" stroke-width="0.624994"/>
</g>
<g opacity="0.4">
<g style="mix-blend-mode:screen" opacity="0.75">
<rect x="0.327148" y="761.785" width="5.625" height="5" fill="#7C7C7C"/>
</g>
<g style="mix-blend-mode:screen" opacity="0.75">
<rect x="82.5137" y="844.285" width="5" height="5.625" fill="#7C7C7C"/>
</g>
<g style="mix-blend-mode:screen" opacity="0.75">
<rect x="394.698" y="108.355" width="5.625" height="5" fill="#7C7C7C"/>
</g>
<g style="mix-blend-mode:screen" opacity="0.75">
<rect x="0.327148" y="108.355" width="5.625" height="5" fill="#7C7C7C"/>
</g>
<g style="mix-blend-mode:screen" opacity="0.75">
<rect x="318.762" y="24.918" width="5" height="5.625" fill="#7C7C7C"/>
</g>
<g style="mix-blend-mode:screen" opacity="0.75">
<rect x="394.698" y="761.473" width="5.625" height="5" fill="#7C7C7C"/>
</g>
</g>
<rect x="143.451" y="24.4766" width="115.625" height="33.75" rx="16.875" fill="black"/>
<g opacity="0.75">
<rect x="228.139" y="33.5391" width="15.625" height="15.625" rx="7.8125" fill="#121212"/>
<rect x="228.139" y="33.5391" width="15.625" height="15.625" rx="7.8125" stroke="#0E0E0E" stroke-width="0.625"/>
<g filter="url(#filter2_f_3_1598)">
<path d="M234.21 37.8672C231.57 38.641 230.691 43.0904 234.21 44.8315C233.33 42.51 233.33 40.3821 234.21 37.8672Z" fill="#50A99A"/>
</g>
<g filter="url(#filter3_f_3_1598)">
<path d="M233.629 39.4766C232.31 39.8932 231.87 42.2891 233.629 43.2266C233.19 41.9766 233.19 40.8307 233.629 39.4766Z" fill="#50A99A"/>
</g>
<g opacity="0.4" filter="url(#filter4_f_3_1598)">
<path d="M234.173 38.8699C233.041 39.0404 232.215 42.1702 233.581 43.0013C233.097 41.8852 233.339 39.6531 234.173 38.8699Z" fill="#D0FFF7"/>
</g>
<g filter="url(#filter5_f_3_1598)">
<path d="M237.692 37.8672C240.332 38.641 241.212 43.0904 237.692 44.8315C238.572 42.51 238.572 40.3821 237.692 37.8672Z" fill="#3E518C"/>
</g>
<g filter="url(#filter6_f_3_1598)">
<path d="M238.273 39.4766C239.593 39.8932 240.033 42.2891 238.273 43.2266C238.713 41.9766 238.713 40.8307 238.273 39.4766Z" fill="#26408D"/>
</g>
<g opacity="0.5" filter="url(#filter7_f_3_1598)">
<path d="M237.73 38.8699C238.861 39.0404 239.687 42.1702 238.321 43.0013C238.805 41.8852 238.563 39.6531 237.73 38.8699Z" fill="#0D308C"/>
</g>
</g>
<g opacity="0.4">
<rect width="22.5" height="22.5" rx="11.25" transform="matrix(-1 0 0 1 171.576 30.1016)" fill="#141414"/>
<rect width="14.625" height="14.625" rx="7.3125" transform="matrix(-1 0 0 1 167.639 34.0391)" fill="black"/>
<g filter="url(#filter8_f_3_1598)">
<path d="M162.52 36.9648C165.846 37.9398 166.955 43.5461 162.52 45.7398C163.629 42.8148 163.629 40.1336 162.52 36.9648Z" fill="#50A99A"/>
</g>
<g filter="url(#filter9_f_3_1598)">
<path d="M163.251 38.9883C164.914 39.5133 165.469 42.532 163.251 43.7133C163.806 42.1383 163.806 40.6945 163.251 38.9883Z" fill="#50A99A"/>
</g>
<g opacity="0.5" filter="url(#filter10_f_3_1598)">
<path d="M162.568 38.2272C163.993 38.442 165.034 42.3856 163.313 43.4327C163.922 42.0265 163.618 39.214 162.568 38.2272Z" fill="#D0FFF7"/>
</g>
<g filter="url(#filter11_f_3_1598)">
<path d="M158.132 36.9648C154.806 37.9398 153.697 43.5461 158.132 45.7398C157.023 42.8148 157.023 40.1336 158.132 36.9648Z" fill="#3E518C"/>
</g>
<g filter="url(#filter12_f_3_1598)">
<path d="M157.401 38.9883C155.738 39.5133 155.184 42.532 157.401 43.7133C156.847 42.1383 156.847 40.6945 157.401 38.9883Z" fill="#26408D"/>
</g>
<g opacity="0.5" filter="url(#filter13_f_3_1598)">
<path d="M158.086 38.2272C156.66 38.442 155.619 42.3856 157.34 43.4327C156.731 42.0265 157.036 39.214 158.086 38.2272Z" fill="#0D308C"/>
</g>
</g>
</g>
<defs>
<filter id="filter0_f_3_1598" x="0.170907" y="0.570321" width="402.184" height="874.055" filterUnits="userSpaceOnUse" color-interpolation-filters="sRGB">
<feFlood flood-opacity="0" result="BackgroundImageFix"/>
<feBlend mode="normal" in="SourceGraphic" in2="BackgroundImageFix" result="shape"/>
<feGaussianBlur stdDeviation="0.468746" result="effect1_foregroundBlur_3_1598"/>
</filter>
<filter id="filter1_f_3_1598" x="6.26465" y="6.35157" width="389.996" height="862.18" filterUnits="userSpaceOnUse" color-interpolation-filters="sRGB">
<feFlood flood-opacity="0" result="BackgroundImageFix"/>
<feBlend mode="normal" in="SourceGraphic" in2="BackgroundImageFix" result="shape"/>
<feGaussianBlur stdDeviation="0.312497" result="effect1_foregroundBlur_3_1598"/>
</filter>
<filter id="filter2_f_3_1598" x="230.148" y="36.1261" width="5.80343" height="10.447" filterUnits="userSpaceOnUse" color-interpolation-filters="sRGB">
<feFlood flood-opacity="0" result="BackgroundImageFix"/>
<feBlend mode="normal" in="SourceGraphic" in2="BackgroundImageFix" result="shape"/>
<feGaussianBlur stdDeviation="0.870536" result="effect1_foregroundBlur_3_1598"/>
</filter>
<filter id="filter3_f_3_1598" x="230.728" y="37.7355" width="4.64328" height="7.23214" filterUnits="userSpaceOnUse" color-interpolation-filters="sRGB">
<feFlood flood-opacity="0" result="BackgroundImageFix"/>
<feBlend mode="normal" in="SourceGraphic" in2="BackgroundImageFix" result="shape"/>
<feGaussianBlur stdDeviation="0.870536" result="effect1_foregroundBlur_3_1598"/>
</filter>
<filter id="filter4_f_3_1598" x="231.708" y="37.7104" width="3.62514" height="6.45034" filterUnits="userSpaceOnUse" color-interpolation-filters="sRGB">
<feFlood flood-opacity="0" result="BackgroundImageFix"/>
<feBlend mode="normal" in="SourceGraphic" in2="BackgroundImageFix" result="shape"/>
<feGaussianBlur stdDeviation="0.580357" result="effect1_foregroundBlur_3_1598"/>
</filter>
<filter id="filter5_f_3_1598" x="235.951" y="36.1261" width="5.80343" height="10.447" filterUnits="userSpaceOnUse" color-interpolation-filters="sRGB">
<feFlood flood-opacity="0" result="BackgroundImageFix"/>
<feBlend mode="normal" in="SourceGraphic" in2="BackgroundImageFix" result="shape"/>
<feGaussianBlur stdDeviation="0.870536" result="effect1_foregroundBlur_3_1598"/>
</filter>
<filter id="filter6_f_3_1598" x="236.531" y="37.7355" width="4.64328" height="7.23214" filterUnits="userSpaceOnUse" color-interpolation-filters="sRGB">
<feFlood flood-opacity="0" result="BackgroundImageFix"/>
<feBlend mode="normal" in="SourceGraphic" in2="BackgroundImageFix" result="shape"/>
<feGaussianBlur stdDeviation="0.870536" result="effect1_foregroundBlur_3_1598"/>
</filter>
<filter id="filter7_f_3_1598" x="236.569" y="37.7104" width="3.62514" height="6.45034" filterUnits="userSpaceOnUse" color-interpolation-filters="sRGB">
<feFlood flood-opacity="0" result="BackgroundImageFix"/>
<feBlend mode="normal" in="SourceGraphic" in2="BackgroundImageFix" result="shape"/>
<feGaussianBlur stdDeviation="0.580357" result="effect1_foregroundBlur_3_1598"/>
</filter>
<filter id="filter8_f_3_1598" x="160.327" y="34.7711" width="7.3123" height="13.1609" filterUnits="userSpaceOnUse" color-interpolation-filters="sRGB">
<feFlood flood-opacity="0" result="BackgroundImageFix"/>
<feBlend mode="normal" in="SourceGraphic" in2="BackgroundImageFix" result="shape"/>
<feGaussianBlur stdDeviation="1.09688" result="effect1_foregroundBlur_3_1598"/>
</filter>
<filter id="filter9_f_3_1598" x="161.057" y="36.7945" width="5.85039" height="9.11406" filterUnits="userSpaceOnUse" color-interpolation-filters="sRGB">
<feFlood flood-opacity="0" result="BackgroundImageFix"/>
<feBlend mode="normal" in="SourceGraphic" in2="BackgroundImageFix" result="shape"/>
<feGaussianBlur stdDeviation="1.09688" result="effect1_foregroundBlur_3_1598"/>
</filter>
<filter id="filter10_f_3_1598" x="161.836" y="37.4953" width="3.10508" height="6.66953" filterUnits="userSpaceOnUse" color-interpolation-filters="sRGB">
<feFlood flood-opacity="0" result="BackgroundImageFix"/>
<feBlend mode="normal" in="SourceGraphic" in2="BackgroundImageFix" result="shape"/>
<feGaussianBlur stdDeviation="0.365625" result="effect1_foregroundBlur_3_1598"/>
</filter>
<filter id="filter11_f_3_1598" x="153.013" y="34.7711" width="7.3123" height="13.1609" filterUnits="userSpaceOnUse" color-interpolation-filters="sRGB">
<feFlood flood-opacity="0" result="BackgroundImageFix"/>
<feBlend mode="normal" in="SourceGraphic" in2="BackgroundImageFix" result="shape"/>
<feGaussianBlur stdDeviation="1.09688" result="effect1_foregroundBlur_3_1598"/>
</filter>
<filter id="filter12_f_3_1598" x="153.745" y="36.7945" width="5.85039" height="9.11406" filterUnits="userSpaceOnUse" color-interpolation-filters="sRGB">
<feFlood flood-opacity="0" result="BackgroundImageFix"/>
<feBlend mode="normal" in="SourceGraphic" in2="BackgroundImageFix" result="shape"/>
<feGaussianBlur stdDeviation="1.09688" result="effect1_foregroundBlur_3_1598"/>
</filter>
<filter id="filter13_f_3_1598" x="155.712" y="37.4953" width="3.10508" height="6.66953" filterUnits="userSpaceOnUse" color-interpolation-filters="sRGB">
<feFlood flood-opacity="0" result="BackgroundImageFix"/>
<feBlend mode="normal" in="SourceGraphic" in2="BackgroundImageFix" result="shape"/>
<feGaussianBlur stdDeviation="0.365625" result="effect1_foregroundBlur_3_1598"/>
</filter>
<clipPath id="clip0_3_1598">
<rect x="0.327148" y="0.414062" width="401.996" height="874.001" rx="65.6244" fill="white"/>
</clipPath>
</defs>
</svg>
