<svg width="412" height="917" viewBox="0 0 412 917" fill="none" xmlns="http://www.w3.org/2000/svg">
<mask id="mask0_2_1386" style="mask-type:alpha" maskUnits="userSpaceOnUse" x="0" y="0" width="412" height="917">
<path d="M412 917H0V0H412V917ZM42.0127 14.5244C26.4799 14.5244 13.888 27.1166 13.8877 42.6494V874.35C13.8877 889.883 26.4797 902.475 42.0127 902.475H367.21C382.743 902.474 395.335 889.882 395.335 874.35V42.6494C395.335 27.1168 382.743 14.5247 367.21 14.5244H42.0127ZM204.611 25.8223C211.429 25.8226 216.955 31.3496 216.955 38.167V39.2998C216.955 46.1172 211.429 51.6442 204.611 51.6445C197.794 51.6445 192.267 46.1174 192.267 39.2998V38.167C192.267 31.3494 197.794 25.8223 204.611 25.8223Z" fill="#C4C4C4"/>
</mask>
<g mask="url(#mask0_2_1386)">
<mask id="mask1_2_1386" style="mask-type:alpha" maskUnits="userSpaceOnUse" x="404" y="140" width="8" height="98">
<rect x="404.593" y="140.406" width="7.40674" height="96.8321" rx="3.70337" fill="url(#paint0_linear_2_1386)"/>
<rect x="404.593" y="140.406" width="7.40674" height="96.8321" rx="3.70337" fill="black" fill-opacity="0.3"/>
</mask>
<g mask="url(#mask1_2_1386)">
<g filter="url(#filter0_i_2_1386)">
<rect x="404.593" y="140.406" width="7.40674" height="96.8321" rx="3.70337" fill="url(#paint1_linear_2_1386)"/>
<rect x="404.593" y="140.406" width="7.40674" height="96.8321" rx="3.70337" fill="#252525" fill-opacity="0.5"/>
</g>
<rect x="411.074" y="140.406" width="3.70337" height="96.8321" rx="1.85169" fill="#252525"/>
</g>
<mask id="mask2_2_1386" style="mask-type:alpha" maskUnits="userSpaceOnUse" x="404" y="295" width="8" height="59">
<rect x="404.593" y="295.336" width="7.40674" height="58.0993" rx="3.70337" fill="url(#paint2_linear_2_1386)"/>
<rect x="404.593" y="295.336" width="7.40674" height="58.0993" rx="3.70337" fill="black" fill-opacity="0.3"/>
</mask>
<g mask="url(#mask2_2_1386)">
<g filter="url(#filter1_i_2_1386)">
<rect x="404.593" y="295.336" width="7.40674" height="58.0993" rx="3.70337" fill="url(#paint3_linear_2_1386)"/>
<rect x="404.593" y="295.336" width="7.40674" height="58.0993" rx="3.70337" fill="#252525" fill-opacity="0.5"/>
</g>
<rect x="411.074" y="295.336" width="3.70337" height="58.0993" rx="1.85169" fill="#252525"/>
</g>
<g filter="url(#filter2_i_2_1386)">
<rect width="409.222" height="917" rx="42.1875" fill="#252525"/>
</g>
<rect x="4.16016" y="4.375" width="400.938" height="908.125" rx="37.9688" fill="url(#paint4_linear_2_1386)" stroke="black" stroke-width="0.9375"/>
<mask id="mask3_2_1386" style="mask-type:alpha" maskUnits="userSpaceOnUse" x="4" y="4" width="401" height="909">
<rect x="4.62891" y="4.84375" width="400" height="907.188" rx="37.5" fill="url(#paint5_linear_2_1386)"/>
</mask>
<g mask="url(#mask3_2_1386)">
<path d="M392.441 12.3437C382.729 9.53125 388.279 9.53125 368.855 9.53125H40.6437C30.7787 9.53125 26.1538 11.4062 23.3789 15.1562" stroke="url(#paint6_radial_2_1386)" stroke-opacity="0.8" stroke-width="18.75" stroke-linecap="round"/>
<g opacity="0.671871" filter="url(#filter3_f_2_1386)">
<path fill-rule="evenodd" clip-rule="evenodd" d="M-14.9805 -12.0067C-32.8262 5.83903 -30.5241 37.0748 -9.83849 57.7604C10.8471 78.446 42.0829 80.7482 59.9286 62.9024C77.7744 45.0567 75.4722 13.8209 54.7866 -6.86472C34.1011 -27.5503 2.86526 -29.8525 -14.9805 -12.0067Z" fill="black"/>
</g>
<g opacity="0.870857" filter="url(#filter4_f_2_1386)">
<path fill-rule="evenodd" clip-rule="evenodd" d="M-26.7807 -18.9565C-34.8727 -10.8644 -24.6636 12.4644 -3.97806 33.15C16.7075 53.8356 40.0364 64.0447 48.1284 55.9527C56.2204 47.8607 46.0113 24.5318 25.3257 3.84622C4.64013 -16.8394 -18.6887 -27.0485 -26.7807 -18.9565Z" fill="black" fill-opacity="0.4"/>
</g>
<g opacity="0.4" filter="url(#filter5_f_2_1386)">
<path fill-rule="evenodd" clip-rule="evenodd" d="M-13.8977 930.101C-25.6701 921.548 -21.2742 895.429 -4.07919 871.762C13.1158 848.095 36.5984 835.843 48.3708 844.396C60.1431 852.949 55.7472 879.069 38.5523 902.735C21.3573 926.402 -2.12535 938.654 -13.8977 930.101Z" fill="black"/>
</g>
<g opacity="0.835027" filter="url(#filter6_f_2_1386)">
<path fill-rule="evenodd" clip-rule="evenodd" d="M429.378 -24.5814C445.998 -7.96138 442.703 22.2808 422.017 42.9664C401.332 63.652 371.089 66.9477 354.469 50.3277C337.849 33.7076 341.145 3.4654 361.831 -17.2202C382.516 -37.9058 412.758 -41.2015 429.378 -24.5814Z" fill="black"/>
</g>
<rect x="8.84766" y="9.0625" width="391.562" height="898.75" rx="33.2812" fill="black" stroke="url(#paint7_linear_2_1386)" stroke-width="0.9375"/>
<rect x="14.0039" y="14.2188" width="381.25" height="888.438" rx="28.125" fill="#C4C4C4"/>
</g>
<rect x="13.8877" y="14.5234" width="381.447" height="887.95" rx="28.125" fill="#FF0000" fill-opacity="0.33"/>
<mask id="mask4_2_1386" style="mask-type:luminance" maskUnits="userSpaceOnUse" x="13" y="14" width="383" height="889">
<rect x="13.8877" y="14.5234" width="381.447" height="887.95" rx="28.125" fill="white"/>
</mask>
<g mask="url(#mask4_2_1386)">
<rect x="13.8877" y="14.5234" width="381.447" height="887.95" fill="black"/>
<circle cx="204.724" cy="38.4336" r="9.0625" fill="#090609"/>
<circle cx="204.724" cy="38.5898" r="5" fill="#131423"/>
<g clip-path="url(#clip0_2_1386)">
<rect x="200.661" y="34.5273" width="8.125" height="8.125" rx="4.0625" fill="#07144C"/>
<g filter="url(#filter7_f_2_1386)">
<path d="M201.911 35.3086H207.536C207.536 35.3086 207.849 37.3398 207.849 38.9023C207.849 40.4648 207.536 42.4961 207.536 42.4961H201.911C201.911 42.4961 201.599 40.6211 201.599 38.9023C201.599 37.1836 201.911 35.3086 201.911 35.3086Z" fill="#030303" fill-opacity="0.8"/>
</g>
<g filter="url(#filter8_f_2_1386)">
<ellipse cx="204.724" cy="40.4648" rx="1.5625" ry="1.40625" fill="url(#paint8_linear_2_1386)"/>
</g>
<g filter="url(#filter9_f_2_1386)">
<circle cx="204.724" cy="40.9336" r="0.9375" fill="url(#paint9_radial_2_1386)" fill-opacity="0.8"/>
</g>
<circle cx="204.724" cy="38.5898" r="2.5" fill="url(#paint10_radial_2_1386)"/>
<g filter="url(#filter10_f_2_1386)">
<circle cx="204.724" cy="38.5898" r="3.125" fill="url(#paint11_radial_2_1386)"/>
</g>
</g>
<rect x="200.817" y="34.6836" width="7.8125" height="7.8125" rx="3.90625" stroke="url(#paint12_linear_2_1386)" stroke-width="0.3125"/>
</g>
</g>
<defs>
<filter id="filter0_i_2_1386" x="404.593" y="140.406" width="7.40723" height="96.832" filterUnits="userSpaceOnUse" color-interpolation-filters="sRGB">
<feFlood flood-opacity="0" result="BackgroundImageFix"/>
<feBlend mode="normal" in="SourceGraphic" in2="BackgroundImageFix" result="shape"/>
<feColorMatrix in="SourceAlpha" type="matrix" values="0 0 0 0 0 0 0 0 0 0 0 0 0 0 0 0 0 0 127 0" result="hardAlpha"/>
<feOffset dx="0.46875"/>
<feComposite in2="hardAlpha" operator="arithmetic" k2="-1" k3="1"/>
<feColorMatrix type="matrix" values="0 0 0 0 0 0 0 0 0 0 0 0 0 0 0 0 0 0 0.361272 0"/>
<feBlend mode="normal" in2="shape" result="effect1_innerShadow_2_1386"/>
</filter>
<filter id="filter1_i_2_1386" x="404.593" y="295.336" width="7.40723" height="58.0977" filterUnits="userSpaceOnUse" color-interpolation-filters="sRGB">
<feFlood flood-opacity="0" result="BackgroundImageFix"/>
<feBlend mode="normal" in="SourceGraphic" in2="BackgroundImageFix" result="shape"/>
<feColorMatrix in="SourceAlpha" type="matrix" values="0 0 0 0 0 0 0 0 0 0 0 0 0 0 0 0 0 0 127 0" result="hardAlpha"/>
<feOffset dx="0.46875"/>
<feComposite in2="hardAlpha" operator="arithmetic" k2="-1" k3="1"/>
<feColorMatrix type="matrix" values="0 0 0 0 0 0 0 0 0 0 0 0 0 0 0 0 0 0 0.361272 0"/>
<feBlend mode="normal" in2="shape" result="effect1_innerShadow_2_1386"/>
</filter>
<filter id="filter2_i_2_1386" x="0" y="0" width="409.223" height="917" filterUnits="userSpaceOnUse" color-interpolation-filters="sRGB">
<feFlood flood-opacity="0" result="BackgroundImageFix"/>
<feBlend mode="normal" in="SourceGraphic" in2="BackgroundImageFix" result="shape"/>
<feColorMatrix in="SourceAlpha" type="matrix" values="0 0 0 0 0 0 0 0 0 0 0 0 0 0 0 0 0 0 127 0" result="hardAlpha"/>
<feMorphology radius="0.9375" operator="erode" in="SourceAlpha" result="effect1_innerShadow_2_1386"/>
<feOffset/>
<feGaussianBlur stdDeviation="0.9375"/>
<feComposite in2="hardAlpha" operator="arithmetic" k2="-1" k3="1"/>
<feColorMatrix type="matrix" values="0 0 0 0 0 0 0 0 0 0 0 0 0 0 0 0 0 0 0.36 0"/>
<feBlend mode="normal" in2="shape" result="effect1_innerShadow_2_1386"/>
</filter>
<filter id="filter3_f_2_1386" x="-85.6061" y="-82.6325" width="216.16" height="216.16" filterUnits="userSpaceOnUse" color-interpolation-filters="sRGB">
<feFlood flood-opacity="0" result="BackgroundImageFix"/>
<feBlend mode="normal" in="SourceGraphic" in2="BackgroundImageFix" result="shape"/>
<feGaussianBlur stdDeviation="29.3065" result="effect1_foregroundBlur_2_1386"/>
</filter>
<filter id="filter4_f_2_1386" x="-55.0396" y="-47.2144" width="131.427" height="131.425" filterUnits="userSpaceOnUse" color-interpolation-filters="sRGB">
<feFlood flood-opacity="0" result="BackgroundImageFix"/>
<feBlend mode="normal" in="SourceGraphic" in2="BackgroundImageFix" result="shape"/>
<feGaussianBlur stdDeviation="12.7419" result="effect1_foregroundBlur_2_1386"/>
</filter>
<filter id="filter5_f_2_1386" x="-51.0797" y="811.091" width="136.632" height="152.318" filterUnits="userSpaceOnUse" color-interpolation-filters="sRGB">
<feFlood flood-opacity="0" result="BackgroundImageFix"/>
<feBlend mode="normal" in="SourceGraphic" in2="BackgroundImageFix" result="shape"/>
<feGaussianBlur stdDeviation="15.2903" result="effect1_foregroundBlur_2_1386"/>
</filter>
<filter id="filter6_f_2_1386" x="292.908" y="-86.1436" width="198.031" height="198.033" filterUnits="userSpaceOnUse" color-interpolation-filters="sRGB">
<feFlood flood-opacity="0" result="BackgroundImageFix"/>
<feBlend mode="normal" in="SourceGraphic" in2="BackgroundImageFix" result="shape"/>
<feGaussianBlur stdDeviation="25.4839" result="effect1_foregroundBlur_2_1386"/>
</filter>
<filter id="filter7_f_2_1386" x="200.661" y="34.3711" width="8.125" height="9.0625" filterUnits="userSpaceOnUse" color-interpolation-filters="sRGB">
<feFlood flood-opacity="0" result="BackgroundImageFix"/>
<feBlend mode="normal" in="SourceGraphic" in2="BackgroundImageFix" result="shape"/>
<feGaussianBlur stdDeviation="0.46875" result="effect1_foregroundBlur_2_1386"/>
</filter>
<filter id="filter8_f_2_1386" x="201.599" y="37.4961" width="6.25" height="5.9375" filterUnits="userSpaceOnUse" color-interpolation-filters="sRGB">
<feFlood flood-opacity="0" result="BackgroundImageFix"/>
<feBlend mode="normal" in="SourceGraphic" in2="BackgroundImageFix" result="shape"/>
<feGaussianBlur stdDeviation="0.78125" result="effect1_foregroundBlur_2_1386"/>
</filter>
<filter id="filter9_f_2_1386" x="203.474" y="39.6836" width="2.5" height="2.5" filterUnits="userSpaceOnUse" color-interpolation-filters="sRGB">
<feFlood flood-opacity="0" result="BackgroundImageFix"/>
<feBlend mode="normal" in="SourceGraphic" in2="BackgroundImageFix" result="shape"/>
<feGaussianBlur stdDeviation="0.15625" result="effect1_foregroundBlur_2_1386"/>
</filter>
<filter id="filter10_f_2_1386" x="200.661" y="34.5273" width="8.125" height="8.125" filterUnits="userSpaceOnUse" color-interpolation-filters="sRGB">
<feFlood flood-opacity="0" result="BackgroundImageFix"/>
<feBlend mode="normal" in="SourceGraphic" in2="BackgroundImageFix" result="shape"/>
<feGaussianBlur stdDeviation="0.46875" result="effect1_foregroundBlur_2_1386"/>
</filter>
<linearGradient id="paint0_linear_2_1386" x1="404.698" y1="143.824" x2="404.698" y2="237.899" gradientUnits="userSpaceOnUse">
<stop offset="0.000558036" stop-color="#D1D1D1"/>
<stop offset="0.0371409" stop-color="#CCCCCC"/>
<stop offset="0.0564525" stop-color="#343434"/>
<stop offset="0.098306" stop-color="#474747"/>
<stop offset="0.152876" stop-color="#E2E2E2"/>
<stop offset="0.489397" stop-color="#D1D1D1"/>
<stop offset="0.828661" stop-color="#C1C1C1"/>
<stop offset="0.859957" stop-color="#545454"/>
<stop offset="0.887856" stop-color="#010101"/>
<stop offset="0.929397" stop-color="#A6A6A6"/>
<stop offset="1" stop-color="#CCCCCC"/>
</linearGradient>
<linearGradient id="paint1_linear_2_1386" x1="404.593" y1="140.406" x2="404.708" y2="237.899" gradientUnits="userSpaceOnUse">
<stop offset="0.0111725" stop-color="#CCCCCC"/>
<stop offset="0.0307684" stop-color="#919191"/>
<stop offset="0.0611478" stop-color="#474747"/>
<stop offset="0.145437" stop-color="#E2E2E2"/>
<stop offset="0.489397" stop-color="#D1D1D1"/>
<stop offset="0.864963" stop-color="#C1C1C1"/>
<stop offset="0.906304" stop-color="#545454"/>
<stop offset="0.951581" stop-color="#010101"/>
<stop offset="1" stop-color="#A6A6A6"/>
</linearGradient>
<linearGradient id="paint2_linear_2_1386" x1="404.698" y1="297.386" x2="404.698" y2="353.832" gradientUnits="userSpaceOnUse">
<stop offset="0.000558036" stop-color="#D1D1D1"/>
<stop offset="0.0371409" stop-color="#CCCCCC"/>
<stop offset="0.0564525" stop-color="#343434"/>
<stop offset="0.098306" stop-color="#474747"/>
<stop offset="0.152876" stop-color="#E2E2E2"/>
<stop offset="0.489397" stop-color="#D1D1D1"/>
<stop offset="0.828661" stop-color="#C1C1C1"/>
<stop offset="0.859957" stop-color="#545454"/>
<stop offset="0.887856" stop-color="#010101"/>
<stop offset="0.929397" stop-color="#A6A6A6"/>
<stop offset="1" stop-color="#CCCCCC"/>
</linearGradient>
<linearGradient id="paint3_linear_2_1386" x1="404.593" y1="295.336" x2="404.634" y2="353.832" gradientUnits="userSpaceOnUse">
<stop offset="0.0111725" stop-color="#CCCCCC"/>
<stop offset="0.0307684" stop-color="#919191"/>
<stop offset="0.0611478" stop-color="#474747"/>
<stop offset="0.145437" stop-color="#E2E2E2"/>
<stop offset="0.489397" stop-color="#D1D1D1"/>
<stop offset="0.864963" stop-color="#C1C1C1"/>
<stop offset="0.906304" stop-color="#545454"/>
<stop offset="0.951581" stop-color="#010101"/>
<stop offset="1" stop-color="#A6A6A6"/>
</linearGradient>
<linearGradient id="paint4_linear_2_1386" x1="4.62891" y1="4.84375" x2="4.62891" y2="912.031" gradientUnits="userSpaceOnUse">
<stop stop-color="#585858"/>
<stop offset="1" stop-color="#252525"/>
</linearGradient>
<linearGradient id="paint5_linear_2_1386" x1="4.62891" y1="4.84375" x2="4.62891" y2="912.031" gradientUnits="userSpaceOnUse">
<stop stop-color="#494949"/>
<stop offset="1"/>
</linearGradient>
<radialGradient id="paint6_radial_2_1386" cx="0" cy="0" r="1" gradientUnits="userSpaceOnUse" gradientTransform="translate(178.774 9.53125) rotate(-90.0001) scale(28.5937 1579.86)">
<stop stop-color="white" stop-opacity="0.12"/>
<stop offset="1" stop-color="white"/>
</radialGradient>
<linearGradient id="paint7_linear_2_1386" x1="204.629" y1="9.53125" x2="204.629" y2="907.344" gradientUnits="userSpaceOnUse">
<stop stop-color="white" stop-opacity="0.08"/>
<stop offset="1" stop-color="white" stop-opacity="0.12"/>
</linearGradient>
<linearGradient id="paint8_linear_2_1386" x1="204.724" y1="39.0586" x2="204.724" y2="41.8711" gradientUnits="userSpaceOnUse">
<stop stop-color="#1D869C" stop-opacity="0.67"/>
<stop offset="0.371348" stop-color="#2371C6" stop-opacity="0.699708"/>
<stop offset="1" stop-color="#040AAD" stop-opacity="0.75"/>
</linearGradient>
<radialGradient id="paint9_radial_2_1386" cx="0" cy="0" r="1" gradientUnits="userSpaceOnUse" gradientTransform="translate(204.724 39.9961) rotate(90) scale(1.875)">
<stop stop-color="#005267"/>
<stop offset="0.595648" stop-color="#415967"/>
<stop offset="1" stop-color="#8700C7"/>
</radialGradient>
<radialGradient id="paint10_radial_2_1386" cx="0" cy="0" r="1" gradientUnits="userSpaceOnUse" gradientTransform="translate(204.724 35.9648) rotate(90) scale(3.09375)">
<stop stop-color="#5978DD"/>
<stop offset="0.510478" stop-color="#312FAD" stop-opacity="0.61"/>
<stop offset="1" stop-color="#1C1C86" stop-opacity="0"/>
</radialGradient>
<radialGradient id="paint11_radial_2_1386" cx="0" cy="0" r="1" gradientUnits="userSpaceOnUse" gradientTransform="translate(204.724 35.3086) rotate(90) scale(3.4375)">
<stop stop-color="white" stop-opacity="0.38"/>
<stop offset="1" stop-opacity="0"/>
</radialGradient>
<linearGradient id="paint12_linear_2_1386" x1="204.724" y1="34.5273" x2="204.724" y2="42.6523" gradientUnits="userSpaceOnUse">
<stop stop-color="white" stop-opacity="0.06"/>
<stop offset="1" stop-color="white" stop-opacity="0"/>
</linearGradient>
<clipPath id="clip0_2_1386">
<rect x="200.661" y="34.5273" width="8.125" height="8.125" rx="4.0625" fill="white"/>
</clipPath>
</defs>
</svg>
