<svg width="700" height="840" viewBox="0 0 700 840" fill="none" xmlns="http://www.w3.org/2000/svg">
<mask id="mask0_2_1310" style="mask-type:alpha" maskUnits="userSpaceOnUse" x="0" y="0" width="700" height="840">
<path d="M700 840H0V0H700V840ZM51.3652 23.5947C35.8323 23.5949 23.2402 36.1878 23.2402 51.7207V788.279C23.2406 803.812 35.8325 816.404 51.3652 816.404H645.846C661.378 816.404 673.97 803.812 673.971 788.279V51.7197C673.97 36.1869 661.379 23.5947 645.846 23.5947H51.3652Z" fill="#C4C4C4"/>
</mask>
<g mask="url(#mask0_2_1310)">
<mask id="mask1_2_1310" style="mask-type:alpha" maskUnits="userSpaceOnUse" x="692" y="136" width="8" height="83">
<rect x="692.563" y="136.855" width="7.43692" height="82.1124" rx="3.71846" fill="url(#paint0_linear_2_1310)"/>
<rect x="692.563" y="136.855" width="7.43692" height="82.1124" rx="3.71846" fill="black" fill-opacity="0.3"/>
</mask>
<g mask="url(#mask1_2_1310)">
<g filter="url(#filter0_i_2_1310)">
<rect x="692.563" y="136.855" width="7.43692" height="82.1124" rx="3.71846" fill="url(#paint1_linear_2_1310)"/>
<rect x="692.563" y="136.855" width="7.43692" height="82.1124" rx="3.71846" fill="#252525" fill-opacity="0.5"/>
</g>
<rect x="699.07" y="136.855" width="3.71846" height="82.1124" rx="1.85923" fill="#252525"/>
</g>
<mask id="mask2_2_1310" style="mask-type:alpha" maskUnits="userSpaceOnUse" x="692" y="287" width="8" height="111">
<rect x="692.563" y="287.863" width="7.43692" height="110.112" rx="3.71846" fill="url(#paint2_linear_2_1310)"/>
<rect x="692.563" y="287.863" width="7.43692" height="110.112" rx="3.71846" fill="black" fill-opacity="0.3"/>
</mask>
<g mask="url(#mask2_2_1310)">
<g filter="url(#filter1_i_2_1310)">
<rect x="692.563" y="287.863" width="7.43692" height="110.112" rx="3.71846" fill="url(#paint3_linear_2_1310)"/>
<rect x="692.563" y="287.863" width="7.43692" height="110.112" rx="3.71846" fill="#252525" fill-opacity="0.5"/>
</g>
<rect x="699.07" y="287.863" width="3.71846" height="110.112" rx="1.85923" fill="#252525"/>
</g>
<g filter="url(#filter2_i_2_1310)">
<rect width="697.211" height="840" rx="51.5625" fill="#252525"/>
</g>
<rect x="4.1875" y="4.24609" width="688.75" height="831.562" rx="47.3438" fill="url(#paint4_linear_2_1310)" stroke="black" stroke-width="0.9375"/>
<mask id="mask3_2_1310" style="mask-type:alpha" maskUnits="userSpaceOnUse" x="4" y="4" width="689" height="832">
<rect x="4.65625" y="4.71484" width="687.812" height="830.625" rx="46.875" fill="url(#paint5_linear_2_1310)"/>
</mask>
<g mask="url(#mask3_2_1310)">
<path d="M661.531 12.2148C644.738 9.40234 654.334 9.40234 620.749 9.40234H53.2578C36.2007 9.40234 28.2042 11.2773 23.4062 15.0273" stroke="url(#paint6_radial_2_1310)" stroke-opacity="0.8" stroke-width="18.75" stroke-linecap="round"/>
<g opacity="0.671871" filter="url(#filter3_f_2_1310)">
<path fill-rule="evenodd" clip-rule="evenodd" d="M-14.9541 -12.1356C-32.7999 5.71012 -30.4977 36.9459 -9.81212 57.6315C10.8735 78.3171 42.1093 80.6192 59.955 62.7735C77.8007 44.9278 75.4986 13.692 54.813 -6.99362C34.1274 -27.6792 2.89163 -29.9814 -14.9541 -12.1356Z" fill="black"/>
</g>
<g opacity="0.870857" filter="url(#filter4_f_2_1310)">
<path fill-rule="evenodd" clip-rule="evenodd" d="M-26.7524 -19.0854C-34.8444 -10.9933 -24.6353 12.3355 -3.94974 33.0211C16.7358 53.7067 40.0647 63.9158 48.1567 55.8238C56.2487 47.7317 46.0396 24.4029 25.354 3.71731C4.66845 -16.9683 -18.6604 -27.1774 -26.7524 -19.0854Z" fill="black" fill-opacity="0.4"/>
</g>
<g opacity="0.4" filter="url(#filter5_f_2_1310)">
<path fill-rule="evenodd" clip-rule="evenodd" d="M-13.8713 834.66C-25.6437 826.107 -21.2478 799.987 -4.05283 776.32C13.1421 752.654 36.6248 740.402 48.3972 748.955C60.1695 757.508 55.7736 783.627 38.5786 807.294C21.3837 830.961 -2.09899 843.213 -13.8713 834.66Z" fill="black"/>
</g>
<g opacity="0.835027" filter="url(#filter6_f_2_1310)">
<path fill-rule="evenodd" clip-rule="evenodd" d="M698.467 -24.7104C715.087 -8.09028 711.792 22.1519 691.106 42.8375C670.42 63.5231 640.178 66.8188 623.558 50.1988C606.938 33.5787 610.234 3.33649 630.919 -17.3491C651.605 -38.0347 681.847 -41.3304 698.467 -24.7104Z" fill="black"/>
</g>
<rect x="8.875" y="8.93359" width="679.375" height="822.188" rx="42.6562" fill="black" stroke="url(#paint7_linear_2_1310)" stroke-width="0.9375"/>
<rect x="23.4062" y="23.4648" width="650.312" height="793.125" rx="28.125" fill="#C4C4C4"/>
</g>
<rect x="23.2402" y="23.5938" width="650.73" height="792.809" rx="28.125" fill="#FF0000" fill-opacity="0.33"/>
<mask id="mask4_2_1310" style="mask-type:luminance" maskUnits="userSpaceOnUse" x="23" y="23" width="651" height="794">
<rect x="23.2402" y="23.5938" width="650.73" height="792.809" rx="28.125" fill="white"/>
</mask>
<g mask="url(#mask4_2_1310)">
<rect x="23.2402" y="23.5938" width="650.73" height="792.809" fill="black"/>
</g>
</g>
<defs>
<filter id="filter0_i_2_1310" x="692.563" y="136.855" width="7.43652" height="82.1133" filterUnits="userSpaceOnUse" color-interpolation-filters="sRGB">
<feFlood flood-opacity="0" result="BackgroundImageFix"/>
<feBlend mode="normal" in="SourceGraphic" in2="BackgroundImageFix" result="shape"/>
<feColorMatrix in="SourceAlpha" type="matrix" values="0 0 0 0 0 0 0 0 0 0 0 0 0 0 0 0 0 0 127 0" result="hardAlpha"/>
<feOffset dx="0.46875"/>
<feComposite in2="hardAlpha" operator="arithmetic" k2="-1" k3="1"/>
<feColorMatrix type="matrix" values="0 0 0 0 0 0 0 0 0 0 0 0 0 0 0 0 0 0 0.361272 0"/>
<feBlend mode="normal" in2="shape" result="effect1_innerShadow_2_1310"/>
</filter>
<filter id="filter1_i_2_1310" x="692.563" y="287.863" width="7.43652" height="110.113" filterUnits="userSpaceOnUse" color-interpolation-filters="sRGB">
<feFlood flood-opacity="0" result="BackgroundImageFix"/>
<feBlend mode="normal" in="SourceGraphic" in2="BackgroundImageFix" result="shape"/>
<feColorMatrix in="SourceAlpha" type="matrix" values="0 0 0 0 0 0 0 0 0 0 0 0 0 0 0 0 0 0 127 0" result="hardAlpha"/>
<feOffset dx="0.46875"/>
<feComposite in2="hardAlpha" operator="arithmetic" k2="-1" k3="1"/>
<feColorMatrix type="matrix" values="0 0 0 0 0 0 0 0 0 0 0 0 0 0 0 0 0 0 0.361272 0"/>
<feBlend mode="normal" in2="shape" result="effect1_innerShadow_2_1310"/>
</filter>
<filter id="filter2_i_2_1310" x="0" y="0" width="697.211" height="840" filterUnits="userSpaceOnUse" color-interpolation-filters="sRGB">
<feFlood flood-opacity="0" result="BackgroundImageFix"/>
<feBlend mode="normal" in="SourceGraphic" in2="BackgroundImageFix" result="shape"/>
<feColorMatrix in="SourceAlpha" type="matrix" values="0 0 0 0 0 0 0 0 0 0 0 0 0 0 0 0 0 0 127 0" result="hardAlpha"/>
<feMorphology radius="0.9375" operator="erode" in="SourceAlpha" result="effect1_innerShadow_2_1310"/>
<feOffset/>
<feGaussianBlur stdDeviation="0.9375"/>
<feComposite in2="hardAlpha" operator="arithmetic" k2="-1" k3="1"/>
<feColorMatrix type="matrix" values="0 0 0 0 0 0 0 0 0 0 0 0 0 0 0 0 0 0 0.36 0"/>
<feBlend mode="normal" in2="shape" result="effect1_innerShadow_2_1310"/>
</filter>
<filter id="filter3_f_2_1310" x="-85.5798" y="-82.7614" width="216.16" height="216.16" filterUnits="userSpaceOnUse" color-interpolation-filters="sRGB">
<feFlood flood-opacity="0" result="BackgroundImageFix"/>
<feBlend mode="normal" in="SourceGraphic" in2="BackgroundImageFix" result="shape"/>
<feGaussianBlur stdDeviation="29.3065" result="effect1_foregroundBlur_2_1310"/>
</filter>
<filter id="filter4_f_2_1310" x="-55.0112" y="-47.3433" width="131.427" height="131.425" filterUnits="userSpaceOnUse" color-interpolation-filters="sRGB">
<feFlood flood-opacity="0" result="BackgroundImageFix"/>
<feBlend mode="normal" in="SourceGraphic" in2="BackgroundImageFix" result="shape"/>
<feGaussianBlur stdDeviation="12.7419" result="effect1_foregroundBlur_2_1310"/>
</filter>
<filter id="filter5_f_2_1310" x="-51.0533" y="715.65" width="136.632" height="152.318" filterUnits="userSpaceOnUse" color-interpolation-filters="sRGB">
<feFlood flood-opacity="0" result="BackgroundImageFix"/>
<feBlend mode="normal" in="SourceGraphic" in2="BackgroundImageFix" result="shape"/>
<feGaussianBlur stdDeviation="15.2903" result="effect1_foregroundBlur_2_1310"/>
</filter>
<filter id="filter6_f_2_1310" x="561.997" y="-86.2725" width="198.031" height="198.033" filterUnits="userSpaceOnUse" color-interpolation-filters="sRGB">
<feFlood flood-opacity="0" result="BackgroundImageFix"/>
<feBlend mode="normal" in="SourceGraphic" in2="BackgroundImageFix" result="shape"/>
<feGaussianBlur stdDeviation="25.4839" result="effect1_foregroundBlur_2_1310"/>
</filter>
<linearGradient id="paint0_linear_2_1310" x1="692.669" y1="139.753" x2="692.669" y2="219.528" gradientUnits="userSpaceOnUse">
<stop offset="0.000558036" stop-color="#D1D1D1"/>
<stop offset="0.0371409" stop-color="#CCCCCC"/>
<stop offset="0.0564525" stop-color="#343434"/>
<stop offset="0.098306" stop-color="#474747"/>
<stop offset="0.152876" stop-color="#E2E2E2"/>
<stop offset="0.489397" stop-color="#D1D1D1"/>
<stop offset="0.828661" stop-color="#C1C1C1"/>
<stop offset="0.859957" stop-color="#545454"/>
<stop offset="0.887856" stop-color="#010101"/>
<stop offset="0.929397" stop-color="#A6A6A6"/>
<stop offset="1" stop-color="#CCCCCC"/>
</linearGradient>
<linearGradient id="paint1_linear_2_1310" x1="692.563" y1="136.855" x2="692.646" y2="219.528" gradientUnits="userSpaceOnUse">
<stop offset="0.0111725" stop-color="#CCCCCC"/>
<stop offset="0.0307684" stop-color="#919191"/>
<stop offset="0.0611478" stop-color="#474747"/>
<stop offset="0.145437" stop-color="#E2E2E2"/>
<stop offset="0.489397" stop-color="#D1D1D1"/>
<stop offset="0.864963" stop-color="#C1C1C1"/>
<stop offset="0.906304" stop-color="#545454"/>
<stop offset="0.951581" stop-color="#010101"/>
<stop offset="1" stop-color="#A6A6A6"/>
</linearGradient>
<linearGradient id="paint2_linear_2_1310" x1="692.669" y1="291.749" x2="692.669" y2="398.727" gradientUnits="userSpaceOnUse">
<stop offset="0.000558036" stop-color="#D1D1D1"/>
<stop offset="0.0371409" stop-color="#CCCCCC"/>
<stop offset="0.0564525" stop-color="#343434"/>
<stop offset="0.098306" stop-color="#474747"/>
<stop offset="0.152876" stop-color="#E2E2E2"/>
<stop offset="0.489397" stop-color="#D1D1D1"/>
<stop offset="0.828661" stop-color="#C1C1C1"/>
<stop offset="0.859957" stop-color="#545454"/>
<stop offset="0.887856" stop-color="#010101"/>
<stop offset="0.929397" stop-color="#A6A6A6"/>
<stop offset="1" stop-color="#CCCCCC"/>
</linearGradient>
<linearGradient id="paint3_linear_2_1310" x1="692.563" y1="287.863" x2="692.712" y2="398.727" gradientUnits="userSpaceOnUse">
<stop offset="0.0111725" stop-color="#CCCCCC"/>
<stop offset="0.0307684" stop-color="#919191"/>
<stop offset="0.0611478" stop-color="#474747"/>
<stop offset="0.145437" stop-color="#E2E2E2"/>
<stop offset="0.489397" stop-color="#D1D1D1"/>
<stop offset="0.864963" stop-color="#C1C1C1"/>
<stop offset="0.906304" stop-color="#545454"/>
<stop offset="0.951581" stop-color="#010101"/>
<stop offset="1" stop-color="#A6A6A6"/>
</linearGradient>
<linearGradient id="paint4_linear_2_1310" x1="4.65625" y1="4.71484" x2="4.65625" y2="835.34" gradientUnits="userSpaceOnUse">
<stop stop-color="#585858"/>
<stop offset="1" stop-color="#252525"/>
</linearGradient>
<linearGradient id="paint5_linear_2_1310" x1="4.65625" y1="4.71484" x2="4.65625" y2="835.34" gradientUnits="userSpaceOnUse">
<stop stop-color="#494949"/>
<stop offset="1"/>
</linearGradient>
<radialGradient id="paint6_radial_2_1310" cx="0" cy="0" r="1" gradientUnits="userSpaceOnUse" gradientTransform="translate(292.09 9.40235) rotate(-90.0001) scale(28.5937 2731.65)">
<stop stop-color="white" stop-opacity="0.12"/>
<stop offset="1" stop-color="white"/>
</radialGradient>
<linearGradient id="paint7_linear_2_1310" x1="348.562" y1="9.40234" x2="348.563" y2="830.652" gradientUnits="userSpaceOnUse">
<stop stop-color="white" stop-opacity="0.08"/>
<stop offset="1" stop-color="white" stop-opacity="0.12"/>
</linearGradient>
</defs>
</svg>
